<svg width="26" height="26" viewBox="0 0 26 26" fill="none" xmlns="http://www.w3.org/2000/svg">
<g opacity="0.3">
<mask id="path-1-inside-1" fill="white">
<path fill-rule="evenodd" clip-rule="evenodd" d="M10 3C9.44772 3 9 3.44772 9 4C9 4.55228 9.44772 5 10 5H16C16.5523 5 17 4.55228 17 4C17 3.44772 16.5523 3 16 3H10ZM21.0056 7H18H8H4.99444C4.44523 7 4 7.44772 4 8C4 8.55228 4.44523 9 4.99444 9L6.06689 9.00333L6.93311 21.9967C6.97076 22.5613 7.43721 23 8 23H18C18.5628 23 19.0292 22.5613 19.0669 21.9967L19.9333 9H21.0056C21.5548 9 22 8.55228 22 8C22 7.44772 21.5548 7 21.0056 7ZM8.06666 9H17.9333L17.9331 9.00333L17.1333 21H8.86667L8.06689 9.00333L8.06666 9Z"/>
</mask>
<path fill-rule="evenodd" clip-rule="evenodd" d="M10 3C9.44772 3 9 3.44772 9 4C9 4.55228 9.44772 5 10 5H16C16.5523 5 17 4.55228 17 4C17 3.44772 16.5523 3 16 3H10ZM21.0056 7H18H8H4.99444C4.44523 7 4 7.44772 4 8C4 8.55228 4.44523 9 4.99444 9L6.06689 9.00333L6.93311 21.9967C6.97076 22.5613 7.43721 23 8 23H18C18.5628 23 19.0292 22.5613 19.0669 21.9967L19.9333 9H21.0056C21.5548 9 22 8.55228 22 8C22 7.44772 21.5548 7 21.0056 7ZM8.06666 9H17.9333L17.9331 9.00333L17.1333 21H8.86667L8.06689 9.00333L8.06666 9Z" fill="#D8D8D8"/>
<path d="M4.99444 9L4.99755 8H4.99444V9ZM6.06689 9.00333L7.06467 8.93682L7.00264 8.00624L6.07 8.00334L6.06689 9.00333ZM6.93311 21.9967L7.9309 21.9301L6.93311 21.9967ZM19.0669 21.9967L20.0647 22.0632L19.0669 21.9967ZM19.9333 9V8H18.9978L18.9355 8.93348L19.9333 9ZM17.9333 9L18.931 9.06791L19.0037 8H17.9333V9ZM8.06666 9V8H6.99613L7.06898 9.06805L8.06666 9ZM17.9331 9.00333L16.9354 8.93542L16.9353 8.93682L17.9331 9.00333ZM17.1333 21V22H18.0689L18.1311 21.0665L17.1333 21ZM8.86667 21L7.86888 21.0665L7.93111 22H8.86667V21ZM8.06689 9.00333L9.06468 8.93682L9.06457 8.93528L8.06689 9.00333ZM10 4V2C8.89543 2 8 2.89543 8 4H10ZM10 4H8C8 5.10457 8.89543 6 10 6V4ZM16 4H10V6H16V4ZM16 4V6C17.1046 6 18 5.10457 18 4H16ZM16 4H18C18 2.89543 17.1046 2 16 2V4ZM10 4H16V2H10V4ZM18 8H21.0056V6H18V8ZM8 8H18V6H8V8ZM4.99444 8H8V6H4.99444V8ZM5 8C5 7.9983 5.00016 7.9977 5.00012 7.99787C5.0001 7.99798 5.00003 7.99823 4.99993 7.99847C4.99978 7.99881 4.99986 7.99851 5.00034 7.99803C5.00081 7.99755 5.00053 7.99806 4.99876 7.99881C4.99781 7.99921 4.9967 7.99956 4.99558 7.99979C4.99439 8.00004 4.9939 8 4.99444 8V6C3.8877 6 3 6.90069 3 8H5ZM4.99444 8C4.9939 8 4.99439 7.99996 4.99558 8.00021C4.9967 8.00044 4.99781 8.00079 4.99876 8.00119C5.00053 8.00194 5.00081 8.00245 5.00034 8.00197C4.99986 8.00149 4.99978 8.00119 4.99993 8.00153C5.00003 8.00177 5.0001 8.00202 5.00012 8.00213C5.00016 8.0023 5 8.0017 5 8H3C3 9.09931 3.8877 10 4.99444 10V8ZM6.07 8.00334L4.99755 8L4.99134 10L6.06378 10.0033L6.07 8.00334ZM7.9309 21.9301L7.06467 8.93682L5.0691 9.06985L5.93533 22.0632L7.9309 21.9301ZM8 22C7.96841 22 7.93384 21.9742 7.9309 21.9301L5.93533 22.0632C6.00767 23.1484 6.90602 24 8 24V22ZM18 22H8V24H18V22ZM18.0691 21.9301C18.0662 21.9742 18.0316 22 18 22V24C19.094 24 19.9923 23.1484 20.0647 22.0632L18.0691 21.9301ZM18.9355 8.93348L18.0691 21.9301L20.0647 22.0632L20.9311 9.06652L18.9355 8.93348ZM21.0056 8H19.9333V10H21.0056V8ZM21 8C21 8.0017 20.9998 8.0023 20.9999 8.00213C20.9999 8.00202 21 8.00177 21.0001 8.00153C21.0002 8.00119 21.0001 8.00149 20.9997 8.00197C20.9992 8.00245 20.9995 8.00194 21.0012 8.00119C21.0022 8.00079 21.0033 8.00044 21.0044 8.00021C21.0056 7.99996 21.0061 8 21.0056 8V10C22.1123 10 23 9.09931 23 8H21ZM21.0056 8C21.0061 8 21.0056 8.00004 21.0044 7.99979C21.0033 7.99956 21.0022 7.99921 21.0012 7.99881C20.9995 7.99806 20.9992 7.99755 20.9997 7.99803C21.0001 7.99851 21.0002 7.99881 21.0001 7.99847C21 7.99823 20.9999 7.99798 20.9999 7.99787C20.9998 7.9977 21 7.9983 21 8H23C23 6.90069 22.1123 6 21.0056 6V8ZM17.9333 8H8.06666V10H17.9333V8ZM18.9308 9.07125L18.931 9.06791L16.9356 8.93209L16.9354 8.93542L18.9308 9.07125ZM18.1311 21.0665L18.9309 9.06985L16.9353 8.93682L16.1355 20.9335L18.1311 21.0665ZM8.86667 22H17.1333V20H8.86667V22ZM7.0691 9.06985L7.86888 21.0665L9.86445 20.9335L9.06467 8.93682L7.0691 9.06985ZM7.06898 9.06805L7.06921 9.07139L9.06457 8.93528L9.06434 8.93195L7.06898 9.06805Z" fill="#979797" mask="url(#path-1-inside-1)"/>
<mask id="mask0" mask-type="alpha" maskUnits="userSpaceOnUse" x="4" y="3" width="18" height="20">
<mask id="path-3-inside-2" mask-type="luminance" fill="white">
<path fill-rule="evenodd" clip-rule="evenodd" d="M10 3C9.44772 3 9 3.44772 9 4C9 4.55228 9.44772 5 10 5H16C16.5523 5 17 4.55228 17 4C17 3.44772 16.5523 3 16 3H10ZM21.0056 7H18H8H4.99444C4.44523 7 4 7.44772 4 8C4 8.55228 4.44523 9 4.99444 9L6.06689 9.00333L6.93311 21.9967C6.97076 22.5613 7.43721 23 8 23H18C18.5628 23 19.0292 22.5613 19.0669 21.9967L19.9333 9H21.0056C21.5548 9 22 8.55228 22 8C22 7.44772 21.5548 7 21.0056 7ZM8.06666 9H17.9333L17.9331 9.00333L17.1333 21H8.86667L8.06689 9.00333L8.06666 9Z"/>
</mask>
<path fill-rule="evenodd" clip-rule="evenodd" d="M10 3C9.44772 3 9 3.44772 9 4C9 4.55228 9.44772 5 10 5H16C16.5523 5 17 4.55228 17 4C17 3.44772 16.5523 3 16 3H10ZM21.0056 7H18H8H4.99444C4.44523 7 4 7.44772 4 8C4 8.55228 4.44523 9 4.99444 9L6.06689 9.00333L6.93311 21.9967C6.97076 22.5613 7.43721 23 8 23H18C18.5628 23 19.0292 22.5613 19.0669 21.9967L19.9333 9H21.0056C21.5548 9 22 8.55228 22 8C22 7.44772 21.5548 7 21.0056 7ZM8.06666 9H17.9333L17.9331 9.00333L17.1333 21H8.86667L8.06689 9.00333L8.06666 9Z" fill="white"/>
<path d="M4.99444 9L4.99755 8H4.99444V9ZM6.06689 9.00333L7.06467 8.93682L7.00264 8.00624L6.07 8.00334L6.06689 9.00333ZM6.93311 21.9967L7.9309 21.9301L6.93311 21.9967ZM19.0669 21.9967L20.0647 22.0632L19.0669 21.9967ZM19.9333 9V8H18.9978L18.9355 8.93348L19.9333 9ZM17.9333 9L18.931 9.06791L19.0037 8H17.9333V9ZM8.06666 9V8H6.99613L7.06898 9.06805L8.06666 9ZM17.9331 9.00333L16.9354 8.93542L16.9353 8.93682L17.9331 9.00333ZM17.1333 21V22H18.0689L18.1311 21.0665L17.1333 21ZM8.86667 21L7.86888 21.0665L7.93111 22H8.86667V21ZM8.06689 9.00333L9.06468 8.93682L9.06457 8.93528L8.06689 9.00333ZM10 4V2C8.89543 2 8 2.89543 8 4H10ZM10 4H8C8 5.10457 8.89543 6 10 6V4ZM16 4H10V6H16V4ZM16 4V6C17.1046 6 18 5.10457 18 4H16ZM16 4H18C18 2.89543 17.1046 2 16 2V4ZM10 4H16V2H10V4ZM18 8H21.0056V6H18V8ZM8 8H18V6H8V8ZM4.99444 8H8V6H4.99444V8ZM5 8C5 7.9983 5.00016 7.9977 5.00012 7.99787C5.0001 7.99798 5.00003 7.99823 4.99993 7.99847C4.99978 7.99881 4.99986 7.99851 5.00034 7.99803C5.00081 7.99755 5.00053 7.99806 4.99876 7.99881C4.99781 7.99921 4.9967 7.99956 4.99558 7.99979C4.99439 8.00004 4.9939 8 4.99444 8V6C3.8877 6 3 6.90069 3 8H5ZM4.99444 8C4.9939 8 4.99439 7.99996 4.99558 8.00021C4.9967 8.00044 4.99781 8.00079 4.99876 8.00119C5.00053 8.00194 5.00081 8.00245 5.00034 8.00197C4.99986 8.00149 4.99978 8.00119 4.99993 8.00153C5.00003 8.00177 5.0001 8.00202 5.00012 8.00213C5.00016 8.0023 5 8.0017 5 8H3C3 9.09931 3.8877 10 4.99444 10V8ZM6.07 8.00334L4.99755 8L4.99134 10L6.06378 10.0033L6.07 8.00334ZM7.9309 21.9301L7.06467 8.93682L5.0691 9.06985L5.93533 22.0632L7.9309 21.9301ZM8 22C7.96841 22 7.93384 21.9742 7.9309 21.9301L5.93533 22.0632C6.00767 23.1484 6.90602 24 8 24V22ZM18 22H8V24H18V22ZM18.0691 21.9301C18.0662 21.9742 18.0316 22 18 22V24C19.094 24 19.9923 23.1484 20.0647 22.0632L18.0691 21.9301ZM18.9355 8.93348L18.0691 21.9301L20.0647 22.0632L20.9311 9.06652L18.9355 8.93348ZM21.0056 8H19.9333V10H21.0056V8ZM21 8C21 8.0017 20.9998 8.0023 20.9999 8.00213C20.9999 8.00202 21 8.00177 21.0001 8.00153C21.0002 8.00119 21.0001 8.00149 20.9997 8.00197C20.9992 8.00245 20.9995 8.00194 21.0012 8.00119C21.0022 8.00079 21.0033 8.00044 21.0044 8.00021C21.0056 7.99996 21.0061 8 21.0056 8V10C22.1123 10 23 9.09931 23 8H21ZM21.0056 8C21.0061 8 21.0056 8.00004 21.0044 7.99979C21.0033 7.99956 21.0022 7.99921 21.0012 7.99881C20.9995 7.99806 20.9992 7.99755 20.9997 7.99803C21.0001 7.99851 21.0002 7.99881 21.0001 7.99847C21 7.99823 20.9999 7.99798 20.9999 7.99787C20.9998 7.9977 21 7.9983 21 8H23C23 6.90069 22.1123 6 21.0056 6V8ZM17.9333 8H8.06666V10H17.9333V8ZM18.9308 9.07125L18.931 9.06791L16.9356 8.93209L16.9354 8.93542L18.9308 9.07125ZM18.1311 21.0665L18.9309 9.06985L16.9353 8.93682L16.1355 20.9335L18.1311 21.0665ZM8.86667 22H17.1333V20H8.86667V22ZM7.0691 9.06985L7.86888 21.0665L9.86445 20.9335L9.06467 8.93682L7.0691 9.06985ZM7.06898 9.06805L7.06921 9.07139L9.06457 8.93528L9.06434 8.93195L7.06898 9.06805Z" fill="white" mask="url(#path-3-inside-2)"/>
</mask>
<g mask="url(#mask0)">
<rect width="26" height="26" fill="#222222"/>
</g>
</g>
</svg>
