<svg width="36" height="20" viewBox="0 0 36 20" fill="none" xmlns="http://www.w3.org/2000/svg">
<path d="M35.8031 10.0308L31.1631 4.73383C31.0118 4.56117 30.7934 4.46203 30.5638 4.46203H26.7001V1.19078C26.7001 0.750701 26.3433 0.393982 25.9033 0.393982H9.44648C9.00648 0.393982 8.64969 0.750701 8.64969 1.19078V2.26593H0.98625C0.54625 2.26593 0.189453 2.62265 0.189453 3.06273C0.189453 3.50281 0.54625 3.85953 0.98625 3.85953H8.64969V14.1884H4.03672C3.59672 14.1884 3.23992 14.5452 3.23992 14.9852C3.23992 15.4253 3.59672 15.782 4.03672 15.782H8.64969V16.5918C8.64969 17.0319 9.00648 17.3886 9.44648 17.3886H11.1096C11.46 18.6651 12.6298 19.6059 14.0161 19.6059C15.4023 19.6059 16.5722 18.6651 16.9227 17.3886H27.5546V17.3885C27.905 18.665 29.0748 19.6059 30.4611 19.6059C31.8473 19.6059 33.0172 18.665 33.3677 17.3885H35.2038C35.6438 17.3885 36.0005 17.0318 36.0005 16.5917V10.5557C36.0005 10.3627 35.9302 10.176 35.8031 10.0308ZM14.0161 18.0123C13.2328 18.0123 12.5956 17.3751 12.5956 16.5918C12.5956 15.8085 13.2328 15.1712 14.0161 15.1712C14.7994 15.1712 15.4366 15.8085 15.4366 16.5918C15.4366 17.3751 14.7994 18.0123 14.0161 18.0123ZM16.9225 15.795C16.5721 14.5185 15.4022 13.5777 14.0159 13.5777C12.6297 13.5777 11.4599 14.5185 11.1095 15.795H10.2431V1.9875H25.1062V15.795H16.9225ZM30.4609 18.0123C29.6777 18.0123 29.0405 17.3751 29.0405 16.5918C29.0405 15.8085 29.6777 15.1712 30.4609 15.1712C31.2442 15.1712 31.8815 15.8085 31.8815 16.5918C31.8815 17.3751 31.2443 18.0123 30.4609 18.0123ZM34.4069 15.795H33.3675C33.0171 14.5185 31.8472 13.5777 30.4609 13.5777C29.0747 13.5777 27.9049 14.5185 27.5545 15.795H26.6998V6.05562H30.2023L34.4068 10.8554V15.795H34.4069Z" fill="#222222"/>
</svg>
