<svg width="26" height="26" viewBox="0 0 26 26" fill="none" xmlns="http://www.w3.org/2000/svg">
<g clip-path="url(#clip0)">
<path d="M25.892 20.722L21.1763 12.5353C21.6638 11.4319 21.9384 10.2164 21.9384 8.9375C21.9384 4.00887 17.9295 0 13.0009 0C8.07228 0 4.06341 4.00887 4.06341 8.9375C4.06341 10.2164 4.33803 11.4319 4.82553 12.5336L0.109783 20.7188C-0.0543419 21.0047 -0.0315919 21.3606 0.169908 21.6206C0.371408 21.8806 0.707783 21.9976 1.02466 21.9099L5.79566 20.6261L7.06478 25.3955C7.14928 25.714 7.41741 25.9496 7.74241 25.9919C7.77978 25.9984 7.81553 26 7.84966 26C8.13728 26 8.40703 25.8472 8.55328 25.5938L13.0009 17.8945L17.4485 25.5938C17.5948 25.8472 17.8645 26 18.1522 26C18.1863 26 18.2237 25.9984 18.2594 25.9935C18.5844 25.9513 18.8525 25.7156 18.937 25.3971L20.2062 20.6278L24.9772 21.9115C25.294 21.9993 25.632 21.8822 25.8319 21.6222C26.0318 21.3622 26.0562 21.0064 25.892 20.722ZM8.12916 23.0799L7.15578 19.422C7.10053 19.214 6.96403 19.0352 6.77716 18.9264C6.59028 18.8191 6.36603 18.7915 6.15966 18.8451L2.49691 19.8299L5.76316 14.1602C7.05828 15.951 8.99366 17.2478 11.2378 17.6995L8.12916 23.0799ZM5.68841 8.9375C5.68841 4.90588 8.96928 1.625 13.0009 1.625C17.0325 1.625 20.3134 4.90588 20.3134 8.9375C20.3134 12.9691 17.0325 16.25 13.0009 16.25C8.96928 16.25 5.68841 12.9691 5.68841 8.9375ZM19.8422 18.8467C19.6342 18.7915 19.4115 18.8207 19.2247 18.928C19.0378 19.0352 18.9013 19.214 18.846 19.4236L17.8727 23.0815L14.764 17.7011C17.0065 17.251 18.9435 15.9526 20.2387 14.1619L23.5049 19.8315L19.8422 18.8467Z" fill="#222222"/>
<path d="M17.8331 6.90946C17.747 6.64784 17.5341 6.44959 17.2676 6.37971L14.9634 5.77684L13.6991 3.64809C13.4066 3.15409 12.5941 3.15409 12.3032 3.64809L11.039 5.77684L8.7331 6.37971C8.46497 6.44959 8.25372 6.64784 8.16597 6.90946C8.07822 7.17109 8.13022 7.45709 8.30247 7.67321L9.84785 9.60696L9.67885 12.1338C9.66097 12.415 9.78935 12.6863 10.0201 12.8505C10.2508 13.0146 10.5498 13.0455 10.8082 12.935L13.0004 12.0038L15.1925 12.935C15.2949 12.9788 15.4037 13 15.511 13C15.6767 13 15.8425 12.9496 15.9822 12.8505C16.213 12.6863 16.3414 12.415 16.3219 12.1338L16.1529 9.60696L17.6966 7.67321C17.8689 7.45871 17.9192 7.17109 17.8331 6.90946ZM14.6871 8.83996C14.5604 8.99921 14.497 9.19909 14.5116 9.40059L14.614 10.9232L13.3189 10.3723C13.2165 10.3285 13.1076 10.3073 13.0004 10.3073C12.8931 10.3073 12.7842 10.3285 12.6818 10.3723L11.3883 10.9232L11.4891 9.40059C11.5037 9.19909 11.4403 8.99921 11.3136 8.83996L10.3532 7.63584L11.7718 7.26371C11.9782 7.21009 12.1553 7.07521 12.2642 6.89321L13.0004 5.65334L13.7365 6.89321C13.8454 7.07521 14.0225 7.21009 14.2289 7.26371L15.6475 7.63584L14.6871 8.83996Z" fill="#222222"/>
</g>
<defs>
<clipPath id="clip0">
<rect width="26" height="26" fill="white"/>
</clipPath>
</defs>
</svg>
