<svg width="29" height="41" viewBox="0 0 29 41" fill="none" xmlns="http://www.w3.org/2000/svg">
<g clip-path="url(#clip0)">
<path d="M4.2 11.4V40.8H6.3V11.4C8.7 10.9 10.5 8.8 10.5 6.3V1H8.4V6.2C8.4 7.5 7.6 8.7 6.3 9.1V1H4.2V9.2C2.9 8.8 2.1 7.6 2.1 6.3V1H0V6.2C0 8.8 1.7 10.9 4.2 11.4Z" fill="url(#paint0_linear)"/>
<path d="M23.2 0C20.3 0 18 2.3 18 5.2V6.2C18 8.7 19.7 10.8 22.2 11.3V40.7H24.3V11.4C26.7 10.9 28.5 8.8 28.5 6.3V5.3C28.4 2.3 26.1 0 23.2 0ZM26.3 6.3C26.3 8 24.9 9.4 23.2 9.4C21.5 9.4 20 8 20 6.3V5.3C20 3.6 21.4 2.2 23.1 2.2C24.8 2.2 26.2 3.6 26.2 5.3V6.3H26.3Z" fill="url(#paint1_linear)"/>
</g>
<defs>
<linearGradient id="paint0_linear" x1="5.2253" y1="-12.3423" x2="5.2253" y2="54.2485" gradientUnits="userSpaceOnUse">
<stop stop-color="#FF0084"/>
<stop offset="0.129" stop-color="#FF0084"/>
<stop offset="0.343" stop-color="#D6408D"/>
<stop offset="0.616" stop-color="#AC71B0"/>
<stop offset="0.934" stop-color="#757BBB"/>
<stop offset="1" stop-color="#6D7CBC"/>
</linearGradient>
<linearGradient id="paint1_linear" x1="23.1712" y1="-12.3423" x2="23.1712" y2="54.2485" gradientUnits="userSpaceOnUse">
<stop stop-color="#FF0084"/>
<stop offset="0.129" stop-color="#FF0084"/>
<stop offset="0.343" stop-color="#CB5793"/>
<stop offset="0.616" stop-color="#AC71B0"/>
<stop offset="0.934" stop-color="#757BBB"/>
<stop offset="1" stop-color="#6D7CBC"/>
</linearGradient>
<clipPath id="clip0">
<rect width="28.4" height="40.8" fill="white"/>
</clipPath>
</defs>
</svg>
