
<svg width="25" height="27" viewBox="0 0 25 27" fill="none" xmlns="http://www.w3.org/2000/svg">
<path d="M24.9172 6.36534C24.9172 6.26277 24.8944 6.16019 24.8488 6.06332C24.7577 5.86957 24.581 5.7385 24.3872 5.69861L12.7792 0.0683833C12.5911 -0.0227944 12.3689 -0.0227944 12.1808 0.0683833L0.458794 5.74989C0.23085 5.85817 0.0826863 6.08611 0.0712891 6.34255V6.34825C0.0712891 6.35395 0.0712891 6.35965 0.0712891 6.37104V20.629C0.0712891 20.8911 0.219453 21.1304 0.458794 21.2444L12.1808 26.9259C12.1865 26.9259 12.1865 26.9259 12.1922 26.9316C12.2093 26.9373 12.2264 26.943 12.2435 26.9544C12.2492 26.9544 12.2549 26.9601 12.2663 26.9601C12.2834 26.9658 12.3005 26.9715 12.3176 26.9772C12.3233 26.9772 12.329 26.9829 12.3347 26.9829C12.3518 26.9886 12.3746 26.9886 12.3917 26.9943C12.3974 26.9943 12.4031 26.9943 12.4088 26.9943C12.4316 26.9943 12.4601 27 12.4829 27C12.5056 27 12.5341 27 12.5569 26.9943C12.5626 26.9943 12.5683 26.9943 12.574 26.9943C12.5911 26.9943 12.6139 26.9886 12.631 26.9829C12.6367 26.9829 12.6424 26.9772 12.6481 26.9772C12.6652 26.9715 12.6823 26.9658 12.6994 26.9601C12.7051 26.9601 12.7108 26.9544 12.7222 26.9544C12.7393 26.9487 12.7564 26.943 12.7735 26.9316C12.7792 26.9316 12.7792 26.9316 12.7849 26.9259L24.5411 21.2273C24.7748 21.1133 24.9286 20.874 24.9286 20.6119V6.38244C24.9172 6.37674 24.9172 6.37104 24.9172 6.36534ZM12.4772 1.44175L22.6435 6.37104L18.8995 8.1889L8.73317 3.2596L12.4772 1.44175ZM12.4772 11.3003L2.31084 6.37104L7.16605 4.01752L17.3324 8.94681L12.4772 11.3003ZM1.43895 7.47087L11.7933 12.4913V25.2163L1.43895 20.1959V7.47087ZM13.161 25.2163V12.4913L18.0219 10.1321V13.4601C18.0219 13.8362 18.3296 14.1439 18.7057 14.1439C19.0818 14.1439 19.3896 13.8362 19.3896 13.4601V9.46539L23.5496 7.44808V20.1731L13.161 25.2163Z" fill="#222222"/>
</svg>
