<svg width="25" height="25" viewBox="0 0 25 25" fill="none" xmlns="http://www.w3.org/2000/svg">
<path d="M13.3559 11.9127H11.648C10.9384 11.9127 10.361 11.3353 10.361 10.6257C10.361 9.91614 10.9384 9.33869 11.648 9.33869H14.6625C14.9855 9.33869 15.2497 9.07443 15.2497 8.75146C15.2497 8.42848 14.9855 8.16422 14.6625 8.16422H13.0916V6.96529C13.0916 6.64231 12.8274 6.37805 12.5044 6.37805C12.1814 6.37805 11.9172 6.64231 11.9172 6.96529V8.16422H11.648C10.2925 8.16422 9.18652 9.27018 9.18652 10.6257C9.18652 11.9812 10.2925 13.0872 11.648 13.0872H13.3559C14.0655 13.0872 14.6429 13.6646 14.6429 14.3742C14.6429 15.0838 14.0655 15.6612 13.3559 15.6612H10.2876C9.96461 15.6612 9.70035 15.9255 9.70035 16.2485C9.70035 16.5715 9.96461 16.8357 10.2876 16.8357H11.9123V18.0591C11.9123 18.3821 12.1765 18.6463 12.4995 18.6463C12.8225 18.6463 13.0867 18.3821 13.0867 18.0591V16.8357H13.3706C13.3755 16.8357 13.3804 16.8357 13.3853 16.8357C14.7261 16.8161 15.8125 15.72 15.8125 14.3742C15.8125 13.0138 14.7114 11.9127 13.3559 11.9127Z" fill="#222222" stroke="#222222" stroke-width="0.4"/>
<path d="M20.6332 4.36681C18.4604 2.19404 15.5732 1 12.5 1C9.42681 1 6.53957 2.19404 4.36681 4.36681C2.19404 6.53957 1 9.42681 1 12.5C1 15.5732 2.19404 18.4604 4.36681 20.6332C6.53957 22.806 9.42681 24 12.5 24C15.5732 24 18.4604 22.806 20.6332 20.6332C22.806 18.4604 24 15.5732 24 12.5C24 9.42681 22.806 6.53957 20.6332 4.36681ZM12.5 22.8255C6.80872 22.8255 2.17447 18.1913 2.17447 12.5C2.17447 6.80872 6.80872 2.17447 12.5 2.17447C18.1913 2.17447 22.8255 6.80872 22.8255 12.5C22.8255 18.1913 18.1913 22.8255 12.5 22.8255Z" fill="#222222" stroke="#222222" stroke-width="0.4"/>
</svg>
