<svg width="24" height="24" viewBox="0 0 24 24" fill="none" xmlns="http://www.w3.org/2000/svg">
<path d="M17.7007 14.3458C17.2987 13.9273 16.8138 13.7035 16.2999 13.7035C15.7901 13.7035 15.3011 13.9231 14.8825 14.3417L13.5729 15.6472C13.4651 15.5892 13.3574 15.5353 13.2538 15.4814C13.1046 15.4068 12.9636 15.3364 12.8435 15.2618C11.6167 14.4826 10.5019 13.4672 9.43262 12.1535C8.91458 11.4987 8.56645 10.9474 8.31364 10.388C8.65348 10.0771 8.96845 9.75386 9.27514 9.44303C9.39118 9.32699 9.50722 9.2068 9.62327 9.09076C10.4936 8.22044 10.4936 7.09317 9.62327 6.22284L8.49185 5.09143C8.36337 4.96295 8.23075 4.83033 8.10642 4.69771C7.85776 4.44076 7.59666 4.17552 7.32727 3.92685C6.92527 3.52899 6.44452 3.31763 5.9389 3.31763C5.43329 3.31763 4.94425 3.52899 4.52981 3.92685C4.52567 3.931 4.52567 3.931 4.52152 3.93514L3.11243 5.35667C2.58195 5.88715 2.27941 6.53367 2.2131 7.28381C2.11363 8.49397 2.47005 9.62124 2.74358 10.3589C3.41497 12.17 4.41791 13.8485 5.91404 15.6472C7.72928 17.8147 9.91337 19.5263 12.4083 20.7323C13.3615 21.1841 14.6338 21.7187 16.0554 21.8099C16.1424 21.814 16.2336 21.8182 16.3165 21.8182C17.2738 21.8182 18.0778 21.4742 18.7078 20.7904C18.7119 20.7821 18.7202 20.7779 18.7243 20.7696C18.9399 20.5086 19.1885 20.2723 19.4496 20.0195C19.6278 19.8496 19.8102 19.6714 19.9884 19.4849C20.3987 19.058 20.6142 18.5607 20.6142 18.0509C20.6142 17.537 20.3945 17.0438 19.9759 16.6294L17.7007 14.3458ZM19.1844 18.7099C19.1802 18.7099 19.1802 18.714 19.1844 18.7099C19.0227 18.884 18.857 19.0414 18.6788 19.2155C18.4094 19.4725 18.1358 19.7418 17.8789 20.0444C17.4603 20.492 16.9671 20.7033 16.3206 20.7033C16.2584 20.7033 16.1921 20.7033 16.13 20.6992C14.8991 20.6205 13.7552 20.1397 12.8973 19.7294C10.5516 18.5938 8.49185 16.9817 6.78022 14.9385C5.36698 13.2352 4.42206 11.6603 3.79626 9.96937C3.41083 8.93742 3.26992 8.13341 3.33208 7.37498C3.37353 6.89009 3.56002 6.48808 3.90401 6.1441L5.31725 4.73086C5.52032 4.54022 5.73583 4.43661 5.94719 4.43661C6.20829 4.43661 6.41965 4.5941 6.55227 4.72672C6.55642 4.73086 6.56056 4.73501 6.56471 4.73915C6.81751 4.97538 7.05789 5.2199 7.3107 5.481C7.43917 5.61362 7.57179 5.74624 7.70441 5.883L8.83583 7.01442C9.27514 7.45373 9.27514 7.85988 8.83583 8.29918C8.71564 8.41937 8.5996 8.53956 8.47941 8.6556C8.13129 9.01202 7.79973 9.34357 7.43917 9.66683C7.43088 9.67512 7.4226 9.67926 7.41845 9.68755C7.06203 10.044 7.12834 10.3921 7.20294 10.6283C7.20709 10.6408 7.21123 10.6532 7.21538 10.6656C7.50963 11.3785 7.92407 12.0499 8.55401 12.8497L8.55816 12.8539C9.70201 14.263 10.908 15.3612 12.2384 16.2025C12.4083 16.3103 12.5824 16.3973 12.7481 16.4802C12.8973 16.5548 13.0382 16.6253 13.1584 16.6999C13.175 16.7081 13.1916 16.7206 13.2082 16.7289C13.3491 16.7993 13.4817 16.8325 13.6185 16.8325C13.9624 16.8325 14.1779 16.617 14.2484 16.5465L15.6658 15.1291C15.8067 14.9882 16.0305 14.8183 16.2916 14.8183C16.5485 14.8183 16.7599 14.9799 16.8884 15.1208C16.8925 15.125 16.8925 15.125 16.8967 15.1291L19.1802 17.4127C19.6071 17.8354 19.6071 18.2706 19.1844 18.7099Z" fill="#222222" stroke="#222222" stroke-width="0.5"/>
<path d="M12.7935 6.85276C13.8794 7.03511 14.8657 7.54901 15.6532 8.33645C16.4406 9.12388 16.9504 10.1102 17.1369 11.1961C17.1825 11.4696 17.4187 11.6602 17.6881 11.6602C17.7212 11.6602 17.7502 11.6561 17.7834 11.652C18.0901 11.6022 18.2932 11.3121 18.2434 11.0054C18.0196 9.69166 17.398 8.49393 16.4489 7.54487C15.4998 6.5958 14.3021 5.97415 12.9883 5.75035C12.6816 5.70062 12.3957 5.90369 12.3418 6.20623C12.2879 6.50877 12.4869 6.80302 12.7935 6.85276Z" fill="#222222" stroke="#222222" stroke-width="0.5"/>
<path d="M21.7953 10.8438C21.4265 8.68047 20.4069 6.71188 18.8404 5.1453C17.2738 3.57872 15.3052 2.5592 13.1418 2.19035C12.8393 2.13648 12.5533 2.3437 12.4994 2.64624C12.4497 2.95292 12.6528 3.23888 12.9595 3.29276C14.8907 3.62017 16.6521 4.53608 18.0529 5.93274C19.4537 7.33354 20.3655 9.09491 20.6929 11.0262C20.7385 11.2997 20.9747 11.4904 21.2441 11.4904C21.2773 11.4904 21.3063 11.4862 21.3394 11.4821C21.642 11.4365 21.8492 11.1464 21.7953 10.8438Z" fill="#222222" stroke="#222222" stroke-width="0.5"/>
</svg>
