<svg width="27" height="24" viewBox="0 0 27 24" fill="none" xmlns="http://www.w3.org/2000/svg">
<path d="M22.6411 4.24723C20.4756 2.19335 17.5951 1.06152 14.5345 1.06152C11.4174 1.06152 8.5009 2.2275 6.32509 4.3448C6.08847 4.57409 6.09362 4.94486 6.33537 5.17416C6.57713 5.39857 6.96806 5.39369 7.20981 5.1644C9.15416 3.27639 11.7518 2.23726 14.5345 2.23726C20.1773 2.23238 24.7655 6.58406 24.7655 11.9359C24.7655 17.2876 20.1773 21.6393 14.5345 21.6393C8.89183 21.6393 4.30359 17.2876 4.30359 11.9359V11.8139L5.32205 12.7798C5.44036 12.8921 5.59981 12.9506 5.75927 12.9506C5.91873 12.9506 6.07304 12.8921 6.19649 12.7798C6.43825 12.5506 6.43825 12.1798 6.19649 11.9505L4.1287 9.98442C3.88694 9.75513 3.49601 9.75513 3.25426 9.98442L1.18132 11.9505C0.939561 12.1798 0.939561 12.5506 1.18132 12.7798C1.29962 12.8921 1.45908 12.9506 1.61854 12.9506C1.77799 12.9506 1.93231 12.8921 2.05576 12.7798L3.07422 11.8139V11.9359C3.07422 14.8386 4.26758 17.5706 6.43311 19.6245C8.59863 21.6784 11.4791 22.8102 14.5397 22.8102C17.6002 22.8102 20.4807 21.6784 22.6463 19.6245C24.8118 17.5706 26 14.8386 26 11.9359C26 9.0331 24.8066 6.30111 22.6411 4.24723Z" fill="#222222" stroke="#222222" stroke-width="0.4"/>
</svg>
