<svg width="20" height="20" viewBox="0 0 20 20" fill="none" xmlns="http://www.w3.org/2000/svg">
<path fill-rule="evenodd" clip-rule="evenodd" d="M2.75379 8.73229C2.75533 5.35152 5.50456 2.60075 8.88379 2.59998C12.263 2.59998 15.013 5.34998 15.0146 8.73075C15.0146 12.11 12.2638 14.8592 8.88225 14.8592C5.50379 14.8592 2.75533 12.11 2.75379 8.73229ZM1.21533 8.73229C1.21687 12.9584 4.65687 16.3977 8.88226 16.3977C10.6446 16.3977 12.2702 15.8005 13.567 14.7978L17.4769 18.7077C17.6269 18.8577 17.8238 18.9331 18.0207 18.9331C18.2176 18.9331 18.4145 18.8577 18.5646 18.7077C18.8653 18.4069 18.8653 17.92 18.5646 17.62L14.6846 13.7401C15.8482 12.3954 16.553 10.6435 16.553 8.72998C16.5515 4.50152 13.1107 1.06152 8.88379 1.06152C4.65687 1.06229 1.21687 4.50306 1.21533 8.73229Z" fill="#C6A07A"/>
<mask id="mask0" mask-type="alpha" maskUnits="userSpaceOnUse" x="1" y="1" width="18" height="18">
<path fill-rule="evenodd" clip-rule="evenodd" d="M2.75379 8.73229C2.75533 5.35152 5.50456 2.60075 8.88379 2.59998C12.263 2.59998 15.013 5.34998 15.0146 8.73075C15.0146 12.11 12.2638 14.8592 8.88225 14.8592C5.50379 14.8592 2.75533 12.11 2.75379 8.73229ZM1.21533 8.73229C1.21687 12.9584 4.65687 16.3977 8.88226 16.3977C10.6446 16.3977 12.2702 15.8005 13.567 14.7978L17.4769 18.7077C17.6269 18.8577 17.8238 18.9331 18.0207 18.9331C18.2176 18.9331 18.4145 18.8577 18.5646 18.7077C18.8653 18.4069 18.8653 17.92 18.5646 17.62L14.6846 13.7401C15.8482 12.3954 16.553 10.6435 16.553 8.72998C16.5515 4.50152 13.1107 1.06152 8.88379 1.06152C4.65687 1.06229 1.21687 4.50306 1.21533 8.73229Z" fill="white"/>
</mask>
<g mask="url(#mask0)">
<rect width="20" height="20" fill="#ffffff"/>
</g>
</svg>
