<svg width="24" height="24" viewBox="0 0 24 24" fill="none" xmlns="http://www.w3.org/2000/svg">
<path d="M23.9777 0.578502C23.878 0.177603 23.4704 -0.0681823 23.0688 0.0329792L20.0684 0.782323C19.7761 0.855759 19.5558 1.09555 19.5094 1.39154L19.1294 3.79544L0.658109 6.01125C0.643871 6.01275 0.632631 6.02324 0.616895 6.02623C0.59966 6.02923 0.583923 6.02399 0.565939 6.02848C0.523227 6.03897 0.491005 6.0652 0.453538 6.08169C0.410825 6.09967 0.37111 6.11391 0.333642 6.13864C0.281188 6.1746 0.238476 6.22106 0.197262 6.26827C0.175531 6.2915 0.148554 6.30499 0.129821 6.33047C0.125325 6.33646 0.125325 6.34396 0.122327 6.34995C0.0818627 6.4129 0.058633 6.48333 0.0376514 6.55527C0.030158 6.5815 0.0151711 6.60398 0.010675 6.63095C-0.00431188 6.72987 -0.00431188 6.83403 0.0211658 6.93744L2.2722 15.9296L3.02154 18.9269C3.02754 18.9487 3.04027 18.9659 3.04777 18.9861C3.05976 19.0221 3.07549 19.0551 3.09348 19.0888C3.11821 19.1375 3.14893 19.1825 3.1849 19.2252C3.20663 19.2507 3.22986 19.2761 3.25459 19.3009C3.3003 19.3406 3.34825 19.3713 3.39996 19.399C3.42694 19.4148 3.45091 19.4313 3.48014 19.4432C3.56407 19.4747 3.65399 19.4942 3.74766 19.4942H19.5004C19.9148 19.4942 20.2497 19.1592 20.2497 18.7456C20.2497 18.3312 19.9148 17.9955 19.5004 17.9955H4.33364L3.95897 16.4968H18.0009C18.0931 16.4968 18.1823 16.4811 18.2647 16.4496C18.2984 16.4361 18.3247 16.4144 18.3554 16.3979C18.4018 16.3732 18.4498 16.3514 18.4895 16.3177C18.5187 16.293 18.5382 16.2593 18.5659 16.2286C18.5974 16.1903 18.6326 16.1574 18.6574 16.1162C18.6776 16.0764 18.6866 16.0315 18.7016 15.9873C18.7173 15.9476 18.7368 15.9101 18.7458 15.8689L18.7488 15.8531V15.8449L20.9144 2.11616L23.4322 1.48746C23.8353 1.38704 24.0789 0.98015 23.9777 0.578502ZM3.5843 14.9974L1.68171 7.39828L4.00768 7.11953L5.13544 14.9974H3.5843ZM6.64912 14.9974L5.49737 6.94118L7.83458 6.66093L8.213 14.9974H6.64912ZM11.2823 14.9974H9.71693L9.32877 6.48109L11.6637 6.20158L11.2823 14.9974ZM14.3374 14.9974H12.784L13.1737 6.02024L15.4981 5.74223L14.3374 14.9974ZM17.3445 14.9974H15.8503L17.0313 5.55714L18.6296 5.36606L17.3445 14.9974ZM6.74803 20.9921C5.92075 20.9921 5.24784 21.6635 5.24784 22.4916C5.24784 23.3196 5.92 23.9895 6.74803 23.9895C7.5768 23.9895 8.24822 23.3189 8.24822 22.4916C8.24822 21.665 7.5768 20.9921 6.74803 20.9921ZM16.5015 20.9921C15.6735 20.9921 15.0013 21.6635 15.0013 22.4916C15.0013 23.3196 15.6727 23.9895 16.5015 23.9895C17.3288 23.9895 18.0017 23.3189 18.0017 22.4916C18.0002 21.6643 17.3288 20.9921 16.5015 20.9921Z" fill="#222222"/>
</svg>
